<?xml version="1.0" encoding="UTF-8"?><svg id="Layer_1" xmlns="http://www.w3.org/2000/svg" viewBox="0 0 146.7 82.96"><defs><style>.cls-1{fill:#1d1d1b;stroke-width:0px;}</style></defs><path class="cls-1" d="M35.79,24.73c1.56.6,7.12,1.61,7.12,3.72,0,1.7-2.27,2.85-4.59,2.44-2.17-.32-2.52-1.84-2.17-3.72l-7.27.78c-.15.87-.35,1.65-.35,2.44,0,3.63,3.33,4.83,7.17,4.83,6.76,0,14.28-1.98,14.28-8.13,0-9.38-13.58-2.71-13.58-14.98,0-2.34,1.11-5.84,4.24-5.84,1.92,0,2.52,1.38,2.52,2.9,0,2.34-1.06,4.92-1.92,7.12l6.31-.05c1.46-2.53,2.68-5.33,2.68-8.23,0-4.73-3.08-7.49-8.13-7.49-7.98,0-14.13,4.78-14.13,12.41,0,5.56,2.07,9.61,7.82,11.81Z"/><path class="cls-1" d="M64.16,33.5c-.1-1.75-.2-3.45-.3-5.19h1.56c2.42-.05,4.69.09,4.69,2.85,0,1.38-.15,2.76-.3,4.14.06,2.6-1.16,3.55-3.68,4.19,1.74.22,3.57-.25,4.99-1.28-.85.82-1.7,1.65-2.55,2.47,4.2,0,8.56-2.21,9.26-6.35-.45-6.76-.76-13.51-.76-20.22,0-4.14.35-8.27.91-12.36-3.13.51-6.16.74-9.29.78.4,4.92.81,9.93.81,14.89,0,1.75,0,3.54-.05,5.29-1.92.28-3.89.41-5.86.51-.1-3.03-.15-6.07-.15-9.1,0-4.73.35-9.42.81-14.11-3.08.78-6.16,1.29-9.39,1.38.4,5.33.86,10.66.86,16.04,0,5.7-.35,11.35-.86,17.05,3.08-.55,6.16-.87,9.29-.97Z"/><path class="cls-1" d="M85.26,18.29c0,5.7-.56,11.35-1.06,17.05,3.18-.55,6.36-.87,9.59-.97-.5-6.48-1.11-12.91-1.11-19.39,0-4.73.66-9.42,1.26-14.06-3.23.78-6.41,1.24-9.74,1.33.4,5.33,1.06,10.71,1.06,16.04Z"/><path class="cls-1" d="M127.81,4.31c-3.12-2.58-6.71-3.91-10.66-3v.02c-4.83.39-9.7.7-14.57.7-1.51,0-2.98-.05-4.49-.09.15.97.3,1.93.3,2.85s-.1,1.75-.2,2.62c.91-.09,1.82-.14,2.78-.14,2.17,0,3.18.41,3.38,2.53.2,2.25.4,4.55.4,6.8,0,6.25-.45,12.5-1.26,18.75,3.28-.55,6.06-.87,9.39-.97-.76-5.84-1.16-11.72-1.16-17.6,0-2.25,0-4.5.2-6.76.29-3.26,2.48-3.06,5.37-3.04v.04c3.68.31,4.44,2.55,5.4,6.11.23.85.51,1.68.68,2.54.35,1.8,2.19,4.84,2.19,4.84,0,0,.35-4.56,1.46-4.51,1.1.05,2.28-1.27,3.14,4.33,1.71-1.1,1.99-4.51,2.06-6.55.15-4.05-1.28-6.9-4.4-9.47Z"/><path class="cls-1" d="M13.83,40.82c.4,4.92.81,9.93.81,14.89,0,1.75,0,3.54-.05,5.29-1.92.28-3.89.41-5.86.51-.1-3.03-.15-6.07-.15-9.1,0-4.73.35-9.42.81-14.11-3.08.78-6.16,1.29-9.39,1.38.4,5.33.86,10.66.86,16.04,0,5.7-.35,11.35-.86,17.05,3.08-.55,6.16-.87,9.29-.97-.1-1.75-.2-3.45-.3-5.19h1.56c2.42-.05,4.69.09,4.69,2.85,0,1.38-.15,2.76-.3,4.14,2.68-.51,5.3-.83,8.03-.97-.45-6.76-.76-13.51-.76-20.22,0-4.14.35-8.27.91-12.36-3.13.51-6.16.74-9.29.78Z"/><path class="cls-1" d="M47.25,38.66c-5.2,1.1-9.49,1.52-14.33,1.33,1.36,10.85-2.62,22.29-6.06,32.91,2.83-.18,5.65-.28,8.43-.28h1.11s-.15-2.11.15-4.5c1.21-.09,2.42-.18,3.63-.18,3.89,0,4.09.28,4.09,3.91,0,.58,0,1.18-.03,1.77-.79,3.07-2.49,5.63-5.27,7.18,1.17.45,2.54.35,3.64-.24-1.27,1.2-2.9,2.03-4.62,2.35,3.33.21,6.8-.11,9.7-1.75s5.38-4.33,5.1-7.65c-2.37-11.49-4.59-23.16-5.55-34.84ZM37.05,63.34c.2-1.88,2.17-16.13,2.93-16.87.76.28,2.83,11.03,2.83,16.45-1.92.23-3.84.37-5.75.41Z"/><path class="cls-1" d="M85.11,44.82c0,6.66-1.31,14.71-3.43,21.33-.96-7.54-2.47-16.36-3.38-23.9-2.83.32-5.65.55-8.48.69.3,1.47.45,2.99.45,4.46,0,5.33-1.36,12.87-3.63,17.74-.3-1.75-.56-4.83-.91-6.57-1.21-6.16-1.87-12.82-2.37-19.07-1.72.14-3.38.23-5.1.23-1.31,0-2.68-.05-4.04-.09,2.47,10.94,5.25,22.52,6.26,33.64,2.93-.37,5.86-.6,8.83-.64,1.01-2.07,3.28-6.62,5-12.87.61-2.21,1.31-1.15,1.31,2.9,0,3.72-.3,8.46-.5,12.18,3.18-.41,5.96-.64,9.19-.64,6.26-13.93,8.73-20.87,9.54-35.66-3.03.46-6.11.83-9.19,1.1.3,1.7.45,3.45.45,5.19Z"/><path class="cls-1" d="M112.57,39.31c-.35,6.57-1.82,14.29-6.01,19.76-.05-1.47-.05-3.86-.05-5.38,0-5.33.15-10.66.91-15.99-3.18.55-6.31.97-9.54,1.15.76,6.34.81,12.73.81,19.12,0,5.06-.3,10.11-.81,15.12,3.18-.37,6.36-.55,9.54-.55-.46-2.11-1.06-4.23-1.06-6.39,0-1.75.66-3.13,2.78-3.13,2.32,0,2.93,1.56,2.93,3.22,0,2.63-.45,5.09-1.23,7.67-2.39,1.92-5.03,2.92-8.08,3.26.69.13,1.38.25,2.07.38.87.22,1.38.66.03.79-1.19.12-2.39.25-3.58.37,3.01,1.44,6.55,1.72,9.75.78,3.2-.94,5.56-2.63,7.3-5.47,1.01-2.62,2.07-6.39,2.07-9.19,0-3.58-1.77-5.52-5.91-5.7,4.19-6.11,5.96-13.51,6.86-20.59-2.93.32-5.85.64-8.78.78Z"/><path class="cls-1" d="M132.86,50.38c0-2.34,1.11-5.84,4.24-5.84,1.92,0,2.52,1.38,2.52,2.9,0,2.34-1.06,4.92-1.92,7.12l6.31-.05c1.46-2.53,2.68-5.33,2.68-8.23,0-4.73-3.08-7.49-8.13-7.49-7.97,0-14.13,4.78-14.13,12.41,0,5.56,2.07,9.61,7.82,11.81,1.57.6,7.12,1.61,7.12,3.72,0,1.7-2.27,2.85-4.59,2.44-2.17-.32-2.52-1.84-2.17-3.72l-7.27.78c-.15.87-.35,1.65-.35,2.44,0,3.63,3.33,4.83,7.17,4.83,6.76,0,14.28-1.98,14.28-8.14,0-9.38-13.58-2.71-13.58-14.98Z"/></svg>